<?xml version="1.0" standalone="no"?>
<!DOCTYPE svg PUBLIC "-//W3C//DTD SVG 20010904//EN"
 "http://www.w3.org/TR/2001/REC-SVG-20010904/DTD/svg10.dtd">
<svg version="1.0" xmlns="http://www.w3.org/2000/svg"
 width="1220.000000pt" height="1220.000000pt" viewBox="0 0 1220.000000 1220.000000"
 preserveAspectRatio="xMidYMid meet">
<metadata>
Created by potrace 1.11, written by Peter Selinger 2001-2013
</metadata>
<g transform="translate(0.000000,1220.000000) scale(0.100000,-0.100000)"
fill="#000000" stroke="none">
<path d="M187 12027 c-16 -5 -28 -17 -29 -28 -6 -67 -5 -88 4 -119 43 -153
211 -428 497 -815 69 -93 128 -172 131 -175 8 -7 140 -170 170 -209 14 -19 33
-43 44 -55 10 -11 36 -45 58 -75 22 -29 48 -61 57 -70 9 -9 30 -35 46 -56 17
-22 32 -42 35 -45 3 -3 27 -32 53 -65 221 -281 244 -310 376 -455 95 -105 558
-570 636 -639 27 -24 76 -65 110 -90 63 -49 65 -51 48 -91 -52 -120 -129 -349
-152 -450 -20 -86 -100 -515 -106 -565 -3 -27 -8 -60 -10 -71 -3 -12 -7 -50
-11 -85 -6 -69 -19 -127 -66 -289 -17 -58 -32 -116 -34 -130 -3 -14 -7 -33
-10 -42 -13 -45 -52 -245 -59 -308 -33 -288 -25 -476 28 -695 14 -59 55 -160
93 -235 55 -107 122 -197 212 -282 l70 -66 -23 -81 c-13 -44 -26 -93 -29 -108
-3 -16 -8 -39 -11 -53 -9 -38 -64 -340 -69 -385 -3 -22 -7 -49 -10 -60 -2 -11
-7 -45 -11 -75 -4 -30 -9 -64 -11 -74 -2 -11 -6 -42 -9 -70 -6 -50 -8 -67 -20
-156 -7 -58 -12 -102 -20 -170 -10 -101 -16 -155 -20 -190 -2 -19 -7 -62 -10
-95 -3 -33 -8 -79 -10 -102 -2 -23 -7 -77 -10 -120 -4 -43 -8 -93 -10 -112
-26 -218 -26 -940 0 -1066 2 -11 6 -38 9 -60 8 -60 35 -202 53 -270 8 -33 17
-69 19 -80 2 -10 20 -77 39 -147 196 -704 505 -1165 920 -1371 100 -50 220
-90 317 -107 69 -12 102 -18 105 -19 2 -1 -41 -58 -95 -129 -54 -70 -133 -179
-177 -242 -43 -63 -84 -122 -92 -131 -18 -21 -17 -64 2 -79 24 -20 72 -7 205
55 67 31 124 55 126 53 2 -2 -8 -21 -21 -41 -29 -42 -31 -60 -9 -81 29 -30 61
-21 197 59 l49 28 -15 -29 c-8 -16 -27 -69 -42 -117 -30 -98 -26 -117 26 -117
22 0 43 15 91 64 126 128 235 248 537 596 113 130 92 118 226 134 66 8 145 18
175 21 30 3 71 8 90 10 19 2 98 11 175 20 77 8 159 18 183 20 23 3 63 7 90 10
26 3 63 8 82 10 19 2 62 7 95 10 33 4 71 8 85 10 113 17 159 19 250 11 41 -3
111 -8 155 -11 44 -3 96 -7 115 -10 19 -2 76 -7 125 -10 50 -4 106 -8 125 -11
19 -2 103 -6 185 -10 141 -6 152 -8 185 -32 19 -14 37 -29 40 -32 3 -3 68 -57
145 -119 77 -63 145 -119 150 -126 6 -6 62 -49 125 -96 354 -262 367 -270 397
-246 19 15 15 68 -8 106 -11 18 -18 35 -16 38 3 2 38 -12 78 -32 58 -30 76
-35 94 -27 36 17 35 53 -2 127 -34 69 -38 79 -25 71 4 -2 46 -7 92 -11 79 -6
86 -4 98 15 10 16 10 26 1 43 -6 12 -96 107 -200 211 -104 104 -189 192 -189
196 0 3 6 7 13 7 69 1 258 44 322 72 11 5 45 20 75 34 127 56 224 136 304 252
155 226 316 639 400 1025 3 15 27 41 58 65 29 21 58 43 63 47 6 4 35 27 65 51
30 24 89 70 130 103 41 32 101 79 133 103 32 25 64 53 72 64 16 23 15 25 -72
217 -9 19 -31 68 -48 108 l-32 73 256 131 c141 72 344 176 451 230 186 95 220
118 220 143 0 6 -13 33 -30 58 -16 26 -42 67 -57 91 -16 25 -49 78 -74 118
-43 69 -125 200 -230 369 l-48 77 127 85 c70 47 204 138 297 202 313 213 485
330 503 340 9 6 19 12 22 15 5 5 40 29 283 193 81 55 152 108 158 119 13 24 0
45 -141 223 -57 72 -124 156 -149 189 -84 107 -135 171 -168 212 l-33 41 178
154 c97 85 193 168 212 185 19 17 132 116 250 219 118 103 231 201 250 219 19
17 64 56 100 86 35 30 75 66 89 79 15 13 51 44 81 70 30 25 62 53 70 61 8 8
47 42 85 75 39 32 77 66 86 75 8 8 40 35 69 60 29 25 58 50 64 55 6 6 59 52
119 104 59 51 108 98 108 105 2 15 2 16 -5 66 -6 47 -54 367 -61 410 -2 14 -7
45 -10 70 -6 42 -21 143 -30 200 -2 14 -9 63 -15 110 -6 47 -13 97 -16 113 -9
59 -13 84 -19 132 -3 28 -12 95 -20 150 -8 55 -17 120 -20 145 -3 25 -8 63
-11 85 -8 57 -11 81 -19 155 -3 36 -8 72 -10 80 -2 8 -7 49 -11 90 -8 89 -10
110 -18 170 -5 44 -10 93 -21 220 -3 36 -8 92 -10 125 -3 33 -8 112 -11 175
-5 137 -13 151 -71 131 -111 -40 -306 -203 -618 -517 -190 -192 -237 -240
-375 -389 -132 -143 -164 -179 -259 -285 -52 -58 -127 -141 -166 -185 -40 -44
-85 -96 -101 -115 -16 -19 -43 -51 -61 -70 -17 -19 -40 -44 -50 -56 -10 -12
-43 -50 -73 -85 -30 -35 -84 -97 -120 -139 -92 -105 -445 -521 -565 -665 -55
-66 -102 -122 -105 -125 -3 -3 -48 -57 -100 -120 -53 -63 -141 -169 -196 -235
-55 -66 -171 -208 -259 -315 -87 -107 -173 -211 -189 -231 -17 -20 -40 -47
-51 -60 -11 -13 -39 -47 -62 -76 -23 -29 -45 -62 -48 -75 -6 -23 123 -158 797
-835 146 -146 169 -173 157 -185 -8 -7 -61 -54 -119 -103 -58 -49 -116 -100
-130 -111 -298 -257 -530 -454 -533 -454 -3 0 -8 24 -12 53 -5 28 -9 54 -10
57 0 3 -5 28 -10 55 -4 28 -9 55 -11 60 -1 6 -5 28 -9 50 -17 107 -89 427
-125 556 -61 225 -154 476 -209 571 l-20 33 29 47 c16 26 39 69 51 95 11 26
27 59 34 73 14 28 64 181 71 220 3 14 9 44 15 68 23 103 30 314 16 466 -8 79
-37 239 -58 310 -6 21 -12 46 -14 55 -2 9 -39 126 -84 261 -95 290 -104 321
-126 425 -39 182 -129 444 -244 710 -34 76 -58 142 -53 146 4 4 144 62 312
129 789 316 902 362 950 391 19 12 64 37 100 57 36 19 115 63 175 97 61 34
138 78 173 96 35 19 71 39 80 44 22 13 130 73 207 115 33 18 76 42 95 53 19
11 55 31 80 45 25 14 82 47 128 73 45 27 85 49 87 49 3 0 28 15 58 33 79 48
84 52 187 112 320 189 430 270 430 319 0 62 -66 86 -305 111 -184 19 -617 25
-755 11 -47 -5 -103 -10 -125 -11 -22 -2 -69 -6 -105 -9 -142 -14 -177 -17
-215 -21 -22 -2 -76 -6 -120 -9 -44 -4 -98 -8 -120 -11 -22 -2 -71 -7 -110
-10 -38 -3 -88 -8 -110 -10 -22 -2 -71 -7 -110 -10 -38 -3 -90 -8 -115 -10
-25 -3 -70 -7 -101 -9 -78 -7 -193 -21 -249 -31 -8 -2 -37 -6 -65 -9 -87 -12
-119 -17 -145 -21 -14 -3 -43 -7 -65 -10 -22 -3 -51 -8 -65 -10 -14 -3 -38 -7
-55 -9 -16 -3 -61 -10 -100 -16 -38 -7 -83 -14 -100 -16 -79 -11 -460 -83
-555 -105 -176 -41 -298 -72 -385 -99 -50 -15 -104 -26 -120 -24 -17 2 -52 6
-80 9 -27 3 -66 8 -85 10 -19 3 -57 7 -85 10 -27 3 -61 7 -75 10 -170 31
-1100 39 -1390 10 -19 -1 -80 -6 -135 -10 -55 -4 -111 -8 -125 -10 -14 -2 -54
-6 -90 -10 -36 -3 -76 -8 -90 -10 -14 -2 -47 -7 -75 -10 -27 -3 -61 -8 -75
-10 -176 -29 -229 -39 -310 -56 -113 -24 -240 -58 -370 -99 -52 -16 -97 -30
-100 -30 -3 0 -48 42 -101 93 -105 101 -137 130 -219 197 -30 25 -57 47 -60
50 -17 20 -299 224 -425 307 -144 96 -439 277 -555 340 -97 53 -194 106 -245
135 -115 64 -491 251 -635 316 -271 122 -782 318 -930 357 -80 21 -117 24
-153 12z m8439 -7687 c154 -133 234 -204 234 -208 0 -6 -68 -87 -166 -199
l-72 -81 -7 56 c-3 32 -8 80 -11 107 -2 28 -6 66 -9 85 -10 71 -35 285 -35
294 0 5 8 1 19 -10 10 -10 31 -30 47 -44z"/>
</g>
</svg>
